<?xml version="1.0" encoding="UTF-8"?>
<svg id="Layer_2" data-name="Layer 2" xmlns="http://www.w3.org/2000/svg" viewBox="0 0 702.07 215.25">
  <defs>
    <style>
      .cls-1 {
        fill: #54c8e8;
      }

      .cls-2 {
        fill: #231f20;
      }

      .cls-3 {
        fill: #009ade;
      }
    </style>
  </defs>
  <g>
    <path class="cls-2" d="M269.95,170.48c0-25.46,17.54-44.77,43.42-44.77,16.33,0,30.48,7.75,37.62,23l-13.18,7.13c-5.08-10.58-13.67-15.5-24.07-15.5-16.57,0-27.7,12.67-27.7,30.13s11.13,30.14,27.7,30.14c10.4,0,19.11-4.92,24.19-15.5l13.06,7.13c-7.14,15.25-21.29,23-37.62,23-25.76,0-43.42-19.06-43.42-44.77Z"/>
    <path class="cls-2" d="M352.3,182.29c0-18.2,12.44-33.09,31.76-33.09s31.76,14.88,31.76,33.09-12.33,32.96-31.76,32.96-31.76-14.88-31.76-32.96ZM384.06,201.6c9.93,0,16.14-8,16.14-19.31s-6.21-19.43-16.14-19.43-16.14,8-16.14,19.43,6.21,19.31,16.14,19.31Z"/>
    <path class="cls-2" d="M421.91,151.33h14.26v8.49c3.44-7.01,8.65-10.62,18.25-10.62,13.53,0,22.87,10.61,22.87,28.2v36.13h-15.31v-32.16c0-10.38-3.1-18.35-11.34-18.35-9.1,0-13.72,6.2-13.72,15.55v34.97h-15.01v-62.21Z"/>
    <path class="cls-2" d="M486.02,151.33h14.26v8.49c3.44-7.01,8.65-10.62,18.25-10.62,13.53,0,22.87,10.61,22.87,28.2v36.13h-15.31v-32.16c0-10.38-3.1-18.35-11.34-18.35-9.1,0-13.72,6.2-13.72,15.55v34.97h-15.01v-62.21Z"/>
    <path class="cls-2" d="M545.28,182.54c0-19.43,12.11-33.33,30.05-33.33s28.89,12.67,28.89,31.73c0,1.85-.12,3.51-.35,5.48h-42.25c.77,7.79,5.9,15.6,15.57,15.6,6.64,0,11-1.78,15.82-6.83l9.22,8.01c-5.71,7.63-14.56,12.05-25.51,12.05-18.99,0-31.45-13.04-31.45-32.72ZM588.8,174.59c-.62-7.98-6.03-12.35-13.52-12.35s-12.71,4.58-14.04,12.35h27.56Z"/>
    <path class="cls-2" d="M605.8,182.29c0-19.43,12.84-33.09,30.92-33.09,12.72,0,22.33,6.1,26.85,17.04l-12.11,6.79c-3.03-6.15-7.84-10.26-13.91-10.26-10.23,0-16.19,7.7-16.19,19.51s5.66,19.31,15.89,19.31c6.07,0,11.03-3.95,13.78-9.87l12.92,6.08c-4.75,10.25-14.75,17.14-27.23,17.14-18.08,0-30.92-13.35-30.92-32.66Z"/>
    <path class="cls-2" d="M671.99,192.02v-28.54h-8.03v-12.56h8.83l.1-19.45h14.11l.2,19.45h14.63v12.56h-14.73v27.91c0,5.54,2.48,10.01,8.88,10.01,2.58,0,6.1-2.28,6.1-2.28v13.47c-3.29,1.04-5.24,1.92-9.3,1.92-14.51,0-20.79-9.45-20.79-22.49Z"/>
  </g>
  <g>
    <circle class="cls-3" cx="72.88" cy="31.9" r="31.9" transform="translate(15.52 87.03) rotate(-67.5)"/>
    <path class="cls-3" d="M151.82,106.25h-7.71c-6.49,0-12.49,2.15-17.33,5.76,6.19,6.86,9.97,15.93,9.97,25.88v2.02c0,8.96-3.08,17.22-8.22,23.78-1.45,1.85-3.06,3.56-4.81,5.12-6.39,5.67-14.67,9.26-23.76,9.7-.61.03-1.23.05-1.86.05H23.7v-44.27c0-19.32,15.72-35.03,35.03-35.03h29.27c5.92-9.2,14.03-16.85,23.61-22.22-4.35-.96-8.86-1.48-13.5-1.48h-39.38C26.3,75.55,0,101.85,0,134.28v60.98c0,3.86,3.13,6.98,6.98,6.98h91.13c5.88,0,11.56-.83,16.95-2.35,3.1-.87,6.1-1.98,8.99-3.3,9.09-4.16,17-10.45,23.1-18.22,1.7-2.17,3.27-4.44,4.67-6.83,5.48-9.28,8.63-20.09,8.63-31.64v-2.02c0-11.55-3.15-22.36-8.63-31.64Z"/>
  </g>
  <g>
    <circle class="cls-1" cx="170.36" cy="31.9" r="31.9" transform="translate(-2.93 28.76) rotate(-9.57)"/>
    <path class="cls-1" d="M185.48,75.55h-41.37c-4.44,0-8.75.5-12.91,1.42-3.4.75-6.68,1.78-9.83,3.08-9.91,4.09-18.48,10.77-24.87,19.2-1.68,2.22-3.2,4.56-4.56,7-4.78,8.59-7.51,18.47-7.51,28.99v.57c0,13.16,3.84,25.42,10.45,35.74h3.25c7.86,0,15.05-2.88,20.59-7.64-6.58-7.52-10.58-17.35-10.58-28.1v-.57c0-8.77,3.16-16.82,8.39-23.07,1.52-1.81,3.21-3.48,5.06-4.96,6.17-4.98,14.01-7.96,22.54-7.96h41.37c19.68,0,35.68,16.01,35.68,35.68v43.62h-65.51c-5.85,8.68-13.61,15.95-22.67,21.25,5.69,1.58,11.67,2.45,17.87,2.45h87.03c3.86,0,6.98-3.13,6.98-6.98v-60.33c0-32.8-26.59-59.38-59.38-59.38Z"/>
  </g>
  <g>
    <path class="cls-2" d="M269.88,63.38c0-25.46,17.66-44.77,43.71-44.77,16.44,0,30.68,7.75,37.87,23l-13.27,7.13c-5.11-10.58-13.76-15.5-24.23-15.5-16.68,0-27.88,12.67-27.88,30.13s11.2,30.14,27.88,30.14c10.47,0,19.24-4.92,24.35-15.5l13.15,7.13c-7.18,15.25-21.43,23-37.87,23-25.94,0-43.71-19.06-43.71-44.77Z"/>
    <path class="cls-2" d="M424.65,19.34h15.3v87.1h-15.3V19.34Z"/>
    <path class="cls-2" d="M454.8,19.34h15.3v87.1h-15.3V19.34Z"/>
    <path class="cls-2" d="M562.84,97.52v8.91h-15.01V19.34h15.26v33.68c3.77-7.13,10.11-10.02,19.24-10.02,16.56,0,28.49,12.63,28.49,32.19s-11.93,32.46-28.49,32.46c-9.38,0-15.83-2.75-19.49-10.13ZM578.9,94.5c9.99,0,16.43-8,16.43-19.31s-6.43-19.43-16.43-19.43-16.43,8-16.43,19.43,6.32,19.31,16.43,19.31Z"/>
    <path class="cls-2" d="M352.35,75.19c0-18.2,12.44-33.09,31.76-33.09s31.76,14.88,31.76,33.09-12.33,32.96-31.76,32.96-31.76-14.88-31.76-32.96ZM384.11,94.5c9.93,0,16.14-8,16.14-19.31s-6.21-19.43-16.14-19.43-16.14,8-16.14,19.43,6.21,19.31,16.14,19.31Z"/>
    <path class="cls-2" d="M510.03,42.98c-20.75,0-27.25,15-27.25,15l10.25,5.67s5.33-9,15.25-9c9.05,0,12.61,7.29,13.16,14.14-3.63-.39-9.64-.78-16.48-.24-10.22.8-24.68,4.52-24.68,20.85,0,9.25,7.25,17.83,22.58,17.83s20.58-11.17,20.58-11.17l-1.08,10.37h12.67v-36.95c0-18.83-9.42-26.5-25-26.5ZM520.78,81.5c0,8.28-6.19,14.07-15.13,14.07-6.53,0-9.97-3.07-9.97-8.28,0-8.48,13.9-9.33,25.1-8.04v2.25Z"/>
  </g>
</svg>